# xmcd CD database file
#
# Track frame offsets:
#	150
#	44126
#	81575
#	120811
#	171863
#	203483
#	258367
#
# Disc length: 3734 seconds
#
# Revision: 0
# Processed by: cddbd v1.5PL3 Copyright (c) Steve Scherf et al.
# Submitted via: CDex 1.50
#
DISCID=590e9407
DTITLE=Mats Holmquist Stora Stygga Big Bad Band - A tribute to Chick Corea
DYEAR=2003
DGENRE=Jazz
TTITLE0=Windows
TTITLE1=Humpty-dumpty
TTITLE2=Crystal Silence
TTITLE3=The one sleep
TTITLE4=Armandos rhumba
TTITLE5=Times lie
TTITLE6=Duende
EXTD=YEAR: 2003
EXTT0=
EXTT1=
EXTT2=
EXTT3=
EXTT4=
EXTT5=
EXTT6=
PLAYORDER=
